<svg width="24" height="24" viewBox="0 0 24 24" fill="none" xmlns="http://www.w3.org/2000/svg">
<path fill-rule="evenodd" clip-rule="evenodd" d="M17.5225 4.24475C16.228 5.0446 14.4932 5.93305 12.5462 6.44589C12.2287 6.52952 12 6.81202 12 7.14032V13.431C12 13.7591 12.2284 14.0415 12.5456 14.1252C14.4928 14.6394 16.2279 15.5264 17.5225 16.3282C18.0059 16.626 18.5844 16.6514 19.0952 16.3987C19.606 16.1439 19.9037 15.6815 19.9037 15.1447V5.42824C19.9037 4.88948 19.6061 4.42899 19.0952 4.17424C18.5844 3.91947 18.0059 3.94502 17.5225 4.24475Z" fill="white"/>
<path d="M3 9.89866C3 8.24181 4.34315 6.89866 6 6.89866H10.3C10.6866 6.89866 11 7.21206 11 7.59866V13.1987C11 13.5853 10.6866 13.8987 10.3 13.8987H6C4.34315 13.8987 3 12.5555 3 10.8987V9.89866Z" fill="white"/>
<path d="M12.152 18.1634L11.2878 15.2424C11.1998 14.945 10.9267 14.741 10.6166 14.741L6.72535 14.7408C6.4526 14.7408 6.25983 15.0078 6.34564 15.2666L8.00092 20.261C8.09585 20.5474 8.36363 20.7408 8.66538 20.7408H10.3C11.4774 20.7408 12.3106 19.5812 12.152 18.1634Z" fill="white"/>
</svg>
