<svg width="264" height="24" viewBox="0 0 264 24" fill="none" xmlns="http://www.w3.org/2000/svg">
<g clip-path="url(#clip0_1429_4429)">
<path d="M4.8877 8.37305L1.91406 17H0.116211L3.8623 7.04688H5.01074L4.8877 8.37305ZM7.37598 17L4.39551 8.37305L4.26562 7.04688H5.4209L9.18066 17H7.37598ZM7.23242 13.3086V14.6689H1.81836V13.3086H7.23242ZM13.5865 17H11.4605L11.4742 15.6396H13.5865C14.2018 15.6396 14.7167 15.5052 15.1314 15.2363C15.5507 14.9674 15.8652 14.5824 16.0748 14.0811C16.289 13.5798 16.3961 12.9827 16.3961 12.29V11.75C16.3961 11.2122 16.3346 10.736 16.2115 10.3213C16.093 9.90658 15.9153 9.55794 15.6783 9.27539C15.4459 8.99284 15.1588 8.77865 14.817 8.63281C14.4798 8.48698 14.0901 8.41406 13.648 8.41406H11.4195V7.04688H13.648C14.3089 7.04688 14.9127 7.15853 15.4596 7.38184C16.0064 7.60059 16.4781 7.91732 16.8746 8.33203C17.2757 8.74674 17.5833 9.24349 17.7975 9.82227C18.0117 10.401 18.1187 11.0482 18.1187 11.7637V12.29C18.1187 13.0055 18.0117 13.6527 17.7975 14.2314C17.5833 14.8102 17.2757 15.307 16.8746 15.7217C16.4736 16.1318 15.9951 16.4486 15.4391 16.6719C14.8876 16.8906 14.2701 17 13.5865 17ZM12.4107 7.04688V17H10.6949V7.04688H12.4107ZM23.133 17H21.007L21.0207 15.6396H23.133C23.7482 15.6396 24.2632 15.5052 24.6779 15.2363C25.0972 14.9674 25.4117 14.5824 25.6213 14.0811C25.8355 13.5798 25.9426 12.9827 25.9426 12.29V11.75C25.9426 11.2122 25.8811 10.736 25.758 10.3213C25.6395 9.90658 25.4618 9.55794 25.2248 9.27539C24.9924 8.99284 24.7053 8.77865 24.3635 8.63281C24.0262 8.48698 23.6366 8.41406 23.1945 8.41406H20.966V7.04688H23.1945C23.8553 7.04688 24.4592 7.15853 25.0061 7.38184C25.5529 7.60059 26.0246 7.91732 26.4211 8.33203C26.8221 8.74674 27.1298 9.24349 27.3439 9.82227C27.5581 10.401 27.6652 11.0482 27.6652 11.7637V12.29C27.6652 13.0055 27.5581 13.6527 27.3439 14.2314C27.1298 14.8102 26.8221 15.307 26.4211 15.7217C26.0201 16.1318 25.5415 16.4486 24.9855 16.6719C24.4341 16.8906 23.8166 17 23.133 17ZM21.9572 7.04688V17H20.2414V7.04688H21.9572ZM37.0854 15.1816L39.7035 7.04688H41.5971L38.0287 17H36.7504L37.0854 15.1816ZM34.6654 7.04688L37.2631 15.1816L37.6186 17H36.3334L32.7787 7.04688H34.6654ZM46.4678 8.37305L43.4941 17H41.6963L45.4424 7.04688H46.5908L46.4678 8.37305ZM48.9561 17L45.9756 8.37305L45.8457 7.04688H47.001L50.7607 17H48.9561ZM48.8125 13.3086V14.6689H43.3984V13.3086H48.8125ZM52.275 7.04688H55.7955C56.552 7.04688 57.1969 7.16081 57.7301 7.38867C58.2633 7.61654 58.6712 7.95378 58.9537 8.40039C59.2408 8.84245 59.3844 9.38932 59.3844 10.041C59.3844 10.5378 59.2932 10.9753 59.1109 11.3535C58.9286 11.7318 58.6712 12.0508 58.3385 12.3105C58.0058 12.5658 57.6093 12.764 57.149 12.9053L56.6295 13.1582H53.4645L53.4508 11.7979H55.8229C56.233 11.7979 56.5748 11.7249 56.8482 11.5791C57.1217 11.4333 57.3268 11.235 57.4635 10.9844C57.6048 10.7292 57.6754 10.4421 57.6754 10.123C57.6754 9.77669 57.607 9.47591 57.4703 9.2207C57.3382 8.96094 57.1331 8.7627 56.8551 8.62598C56.5771 8.4847 56.2239 8.41406 55.7955 8.41406H53.9908V17H52.275V7.04688ZM57.9557 17L55.6178 12.5293L57.4156 12.5225L59.7877 16.9111V17H57.9557ZM63.3254 7.04688V17H61.6096V7.04688H63.3254ZM69.8572 8.37305L66.8836 17H65.0857L68.8318 7.04688H69.9803L69.8572 8.37305ZM72.3455 17L69.365 8.37305L69.2352 7.04688H70.3904L74.1502 17H72.3455ZM72.202 13.3086V14.6689H66.7879V13.3086H72.202ZM79.3969 12.502H76.8607L76.8471 11.251H79.0619C79.4356 11.251 79.7523 11.1963 80.0121 11.0869C80.2764 10.973 80.477 10.8112 80.6137 10.6016C80.7504 10.3874 80.8187 10.1299 80.8187 9.8291C80.8187 9.49642 80.7549 9.22526 80.6273 9.01562C80.4997 8.80599 80.3038 8.65332 80.0395 8.55762C79.7797 8.46191 79.447 8.41406 79.0414 8.41406H77.3803V17H75.6645V7.04688H79.0414C79.5883 7.04688 80.0759 7.09928 80.5043 7.2041C80.9372 7.30892 81.3041 7.47298 81.6049 7.69629C81.9102 7.91504 82.1404 8.19303 82.2953 8.53027C82.4548 8.86751 82.5346 9.26855 82.5346 9.7334C82.5346 10.1436 82.4366 10.5195 82.2406 10.8613C82.0447 11.1986 81.7553 11.4743 81.3725 11.6885C80.9896 11.9027 80.5134 12.0303 79.9437 12.0713L79.3969 12.502ZM79.3217 17H76.3207L77.0932 15.6396H79.3217C79.709 15.6396 80.0326 15.5758 80.2924 15.4482C80.5521 15.3161 80.7458 15.1361 80.8734 14.9082C81.0056 14.6758 81.0717 14.4046 81.0717 14.0947C81.0717 13.7712 81.0147 13.4909 80.9008 13.2539C80.7868 13.0124 80.6068 12.8278 80.3607 12.7002C80.1146 12.568 79.7934 12.502 79.3969 12.502H77.4691L77.4828 11.251H79.9916L80.3812 11.7227C80.9281 11.7409 81.377 11.8617 81.7279 12.085C82.0834 12.3083 82.3477 12.5977 82.5209 12.9531C82.6941 13.3086 82.7807 13.6914 82.7807 14.1016C82.7807 14.735 82.6417 15.266 82.3637 15.6943C82.0902 16.1227 81.696 16.4486 81.1811 16.6719C80.6661 16.8906 80.0463 17 79.3217 17ZM91.1445 15.6396V17H86.1475V15.6396H91.1445ZM86.626 7.04688V17H84.9102V7.04688H86.626ZM99.3854 15.6396V17H94.1012V15.6396H99.3854ZM94.5865 7.04688V17H92.8707V7.04688H94.5865ZM98.6949 11.2031V12.543H94.1012V11.2031H98.6949ZM99.3512 7.04688V8.41406H94.1012V7.04688H99.3512Z" fill="#007DFF"/>
</g>
<path d="M141.992 3.66667C137.392 3.66667 133.667 7.40001 133.667 12C133.667 16.6 137.392 20.3333 141.992 20.3333C146.6 20.3333 150.333 16.6 150.333 12C150.333 7.40001 146.6 3.66667 141.992 3.66667ZM139.083 8.66667C139.775 8.66667 140.333 9.22501 140.333 9.91667C140.333 10.6083 139.775 11.1667 139.083 11.1667C138.392 11.1667 137.833 10.6083 137.833 9.91667C137.833 9.22501 138.392 8.66667 139.083 8.66667ZM142 17C140.1 17 138.483 15.6167 137.833 13.6667H146.167C145.517 15.6167 143.9 17 142 17ZM144.917 11.1667C144.225 11.1667 143.667 10.6083 143.667 9.91667C143.667 9.22501 144.225 8.66667 144.917 8.66667C145.608 8.66667 146.167 9.22501 146.167 9.91667C146.167 10.6083 145.608 11.1667 144.917 11.1667Z" fill="black" fill-opacity="0.54"/>
<path d="M173 10.9917C173.808 10.4333 174.375 9.51666 174.375 8.66666C174.375 6.78333 172.917 5.33333 171.042 5.33333H165.833V17H171.7C173.442 17 174.792 15.5833 174.792 13.8417C174.792 12.575 174.075 11.4917 173 10.9917ZM168.333 7.41666H170.833C171.525 7.41666 172.083 7.975 172.083 8.66666C172.083 9.35833 171.525 9.91666 170.833 9.91666H168.333V7.41666ZM171.25 14.9167H168.333V12.4167H171.25C171.942 12.4167 172.5 12.975 172.5 13.6667C172.5 14.3583 171.942 14.9167 171.25 14.9167Z" fill="black" fill-opacity="0.54"/>
<path d="M190.725 6.16667L189.667 7.22501L195.475 13.0333L193.417 17.8333H195.917L197.225 14.7833L201.942 19.5L203 18.4417L190.958 6.39167L190.725 6.16667ZM193 6.16667V6.31667L195.35 8.66667H197.35L196.75 10.0667L198.5 11.8167L199.842 8.66667H204.667V6.16667H193Z" fill="black" fill-opacity="0.54"/>
<path d="M224.333 5.33333V7.83333H226.175L223.325 14.5H221V17H227.667V14.5H225.825L228.675 7.83333H231V5.33333H224.333Z" fill="black" fill-opacity="0.54"/>
<path d="M251.833 15.8333L248 12L251.833 8.16667L250.667 7L245.667 12L250.667 17L251.833 15.8333ZM256.167 15.8333L260 12L256.167 8.16667L257.333 7L262.333 12L257.333 17L256.167 15.8333Z" fill="black" fill-opacity="0.54"/>
<defs>
<clipPath id="clip0_1429_4429">
<rect width="100" height="24" rx="4" fill="white"/>
</clipPath>
</defs>
</svg>
